<?xml version="1.0" encoding="UTF-8"?>
<svg id="Capa_1" xmlns="http://www.w3.org/2000/svg" version="1.1" xmlns:xlink="http://www.w3.org/1999/xlink" viewBox="0 0 800 800">
  <!-- Generator: Adobe Illustrator 29.2.1, SVG Export Plug-In . SVG Version: 2.1.0 Build 116)  -->
  <defs>
    <style>
      .st0 {
        fill: #1c5eae;
      }
    </style>
  </defs>
  <g id="iconos">
    <path class="st0" d="M400,583.3c103.7,0,188.1-84.4,188.1-188.1s-84.4-188.1-188.1-188.1-188.1,84.4-188.1,188.1,84.4,188.1,188.1,188.1ZM402.6,276.7c63,0,114.1,51.1,114.1,114.1s-51.1,114.1-114.1,114.1-114.1-51.1-114.1-114.1c0-63,51.1-114.1,114.1-114.1Z"/>
    <path class="st0" d="M169.5,518.9l-82.1,124,53.6,53.5,121.2-80.4c20.4,12.8,42.7,27,66.3,33.8l29.6,150.2h75.7l28.8-146.6c24.1-5.6,46.9-16.3,68-27.9l124,81.3,53.5-54-80.4-121.4c12.8-20.4,21.1-42.8,27.9-66.4l144.3-29.6v-75.7l-140.7-28.8c-5.6-24.1-13.4-46.9-25-68l82.8-124.1-53.3-53.5-121,80.4c-20.4-12.8-42.6-17.8-66.2-24.6L447,0h-75.7l-28.8,137.4c-24.1,5.6-46.9,11.7-68,23.3l-124-83.6-53.5,52.9,80.4,120.8c-12.8,20.4-23.7,42.5-30.5,66.1L0,346.4v75.7l143.3,28.8c5.6,24.1,14.7,47,26.3,68ZM400,192.8c111.6,0,202.4,90.8,202.4,202.4s-90.8,202.4-202.4,202.4-202.4-90.8-202.4-202.4,90.8-202.4,202.4-202.4Z"/>
  </g>
</svg>